<?xml version="1.0"?>
<svg xmlns="http://www.w3.org/2000/svg" xmlns:xlink="http://www.w3.org/1999/xlink" xmlns:svgjs="http://svgjs.com/svgjs" version="1.1" width="512" height="512" x="0" y="0" viewBox="0 0 512 512" style="enable-background:new 0 0 512 512" xml:space="preserve" class=""><g><g xmlns="http://www.w3.org/2000/svg"><g><path d="m206.605 416.605c-5.859 5.859-15.352 5.859-21.211 0l-19.394-19.394-83.789 83.789h347.578l-143.789-143.789z" fill="#ae9553" data-original="#000000" style="" class=""/><circle cx="166" cy="286" r="15" fill="#ae9553" data-original="#000000" style="" class=""/><path d="m155.395 365.395c5.859-5.859 15.352-5.859 21.211 0l19.394 19.394 79.395-79.395c5.859-5.859 15.352-5.859 21.211 0l154.394 154.395v-263.789c0-8.291-6.709-15-15-15h-360c-8.291 0-15 6.709-15 15v263.789zm10.605-124.395c24.814 0 45 20.186 45 45s-20.186 45-45 45-45-20.186-45-45 20.186-45 45-45z" fill="#ae9553" data-original="#000000" style="" class=""/></g><path d="m497 91h-361c-8.291 0-15 6.709-15 15v45h315c24.814 0 45 20.186 45 45v195h16c8.291 0 15-6.709 15-15v-270c0-8.291-6.709-15-15-15z" fill="#ae9553" data-original="#000000" style="" class=""/><path d="m91 106c0-24.814 20.186-45 45-45h255v-15c0-8.291-6.709-15-15-15h-361c-8.291 0-15 6.709-15 15v270c0 8.291 6.709 15 15 15h16v-135c0-24.814 20.186-45 45-45h15z" fill="#ae9553" data-original="#000000" style="" class=""/></g></g></svg>
