<?xml version="1.0"?>
<svg xmlns="http://www.w3.org/2000/svg" xmlns:xlink="http://www.w3.org/1999/xlink" xmlns:svgjs="http://svgjs.com/svgjs" version="1.1" width="512" height="512" x="0" y="0" viewBox="0 0 511 511.99994" style="enable-background:new 0 0 512 512" xml:space="preserve" class=""><g><path xmlns="http://www.w3.org/2000/svg" d="m326.804688 156.121094c-23.902344-9.71875-41.695313 5.003906-50.175782 14.648437-3.660156 4.15625-8.929687 6.546875-14.46875 6.558594h-.039062c-5.523438 0-10.789063-2.367187-14.453125-6.5-6.570313-7.402344-18.671875-17.804687-34.792969-17.804687-4.851562 0-10.070312.941406-15.613281 3.195312-12.59375 5.121094-22.375 15.203125-27.535157 28.394531-5.664062 14.46875-5.105468 30.878907 1.527344 45.03125 10.886719 23.210938 35.472656 59.230469 90.878906 100.816407 55.117188-41.390626 79.71875-77.539063 90.683594-100.914063 6.632813-14.148437 7.1875-30.5625 1.527344-45.03125-5.164062-13.1875-14.941406-23.273437-27.539062-28.394531zm0 0" fill="#ae9553" data-original="#000000" style="" class=""/><path xmlns="http://www.w3.org/2000/svg" d="m472.820312 127.976562c-17.445312-45.460937-50.53125-81.359374-95.6875-103.816406-41.246093-20.511718-90.609374-28.335937-139.007812-22.035156-35.796875 4.660156-69.792969 17.175781-98.316406 36.195312-55.695313 37.140626-92.230469 97.28125-97.726563 160.871094-.828125 9.542969.574219 19.097656 1.929688 28.335938 1.417969 9.691406 2.761719 18.84375 1.109375 25.417968l-.003906.019532c-.363282 1.460937-4.460938 15.160156-35.671876 46.058594-7.828124 7.75-10.808593 19.148437-7.78125 29.746093 3.027344 10.601563 11.585938 18.707031 22.332032 21.152344 4.449218 1.015625 8.488281 1.90625 12.015625 2.6875 1.167969.257813 2.28125.503906 3.332031.738281.195312 24.460938.515625 53.257813.96875 58.648438 1.058594 12.558594 6.578125 23.078125 15.960938 30.417968 13.011718 10.179688 32.683593 13.5 56.902343 9.613282 18.675781-3.003906 29.777344 1.734375 33.011719 14.066406.289062 2.4375 1.144531 9.921875 1.695312 18.097656 1.054688 15.59375 14.125 27.808594 29.757813 27.808594h192.992187c16.457032 0 29.839844-13.386719 29.839844-29.84375v-53.394531c0-37.648438 5.917969-63.257813 17.585938-76.117188 28.953125-31.90625 49.632812-67.753906 59.804687-103.671875 11.660157-41.171875 9.960938-81.878906-5.042969-120.996094zm-92.847656 114.308594c-18.707031 39.890625-54.523437 79.277344-106.453125 117.066406-3.40625 2.476563-7.394531 3.714844-11.382812 3.714844-3.992188 0-7.980469-1.238281-11.386719-3.71875-35.871094-26.101562-83.496094-67.582031-106.65625-116.96875-10.109375-21.566406-10.949219-46.605468-2.304688-68.703125 8.195313-20.929687 23.882813-37 44.175782-45.25 34.90625-14.1875 62.128906 2.335938 76.125 14.570313 13.941406-12.28125 41.082031-28.871094 76.011718-14.667969 20.296876 8.25 35.984376 24.324219 44.175782 45.253906 8.648437 22.097657 7.808594 47.140625-2.304688 68.703125zm0 0" fill="#ae9553" data-original="#000000" style="" class=""/></g></svg>
