<?xml version="1.0"?>
<svg xmlns="http://www.w3.org/2000/svg" xmlns:xlink="http://www.w3.org/1999/xlink" xmlns:svgjs="http://svgjs.com/svgjs" version="1.1" width="512" height="512" x="0" y="0" viewBox="0 0 512 512" style="enable-background:new 0 0 512 512" xml:space="preserve" class=""><g><g xmlns="http://www.w3.org/2000/svg"><path d="m443.82 142.029c-49.78-49.78-130.488-49.78-180.268 0l-71.671 71.671 22.534 22.534c12.445 12.445 32.622 12.445 45.067 0l62.799-62.799 134.172 134.172c36.713-49.88 32.503-120.443-12.633-165.578z" fill="#ae9553" data-original="#000000" style="" class=""/><path d="m453.476 14.29-64.41 64.41c8.107 1.865 16.076 4.37 23.861 7.527 19.553 7.929 37.084 19.567 52.107 34.589 22.431 22.431 37.458 51.001 43.336 81.864l3.63-3.63v-184.76z" fill="#ae9553" data-original="#000000" style="" class=""/><path d="m99.044 86.199c7.786-3.157 15.754-5.662 23.862-7.527l-64.382-64.382h-58.524v184.76l3.585 3.585c1.926-10.141 4.848-20.08 8.765-29.74 7.929-19.553 19.567-37.084 34.589-52.107s32.553-26.66 52.105-34.589z" fill="#ae9553" data-original="#000000" style="" class=""/><path d="m280.695 257.447c-11.685 11.685-27.221 18.12-43.747 18.12-16.525 0-32.061-6.435-43.747-18.12l-43.747-43.747 84.307-84.307c-49.882-36.739-120.464-32.538-165.61 12.607-49.78 49.78-49.78 130.488 0 180.268l175.442 175.442 34.46-34.46-55.173-55.173 21.213-21.213 70.196 70.196 23.854-23.854-70.196-70.196 21.213-21.213 85.218 85.218 23.854-23.854-85.218-85.218 21.213-21.213 100.241 100.24 34.46-34.46-146.648-146.649z" fill="#ae9553" data-original="#000000" style="" class=""/></g></g></svg>
