<?xml version="1.0"?>
<svg xmlns="http://www.w3.org/2000/svg" xmlns:xlink="http://www.w3.org/1999/xlink" xmlns:svgjs="http://svgjs.com/svgjs" version="1.1" width="512" height="512" x="0" y="0" viewBox="0 0 512 512" style="enable-background:new 0 0 512 512" xml:space="preserve" class=""><g><g xmlns="http://www.w3.org/2000/svg"><circle cx="166" cy="300" r="15" fill="#ae9553" data-original="#000000" style="" class=""/><g><path d="m246 277c0-24.813 20.187-45 45-45 7.632 0 14.226-4.075 17.639-10.901l2.112-4.224c1.273-2.546 2.777-4.915 4.449-7.124-6.291-6.032-14.817-9.751-24.2-9.751h-250c-19.299 0-35 15.701-35 35v160c0 19.299 15.701 35 35 35h217.629c-8.324-21.279-12.629-44.017-12.629-67.403zm-65 65.42v17.58c0 8.284-6.716 15-15 15s-15-6.716-15-15v-17.58c-17.459-6.192-30-22.865-30-42.42 0-24.813 20.187-45 45-45s45 20.187 45 45c0 19.555-12.541 36.228-30 42.42z" fill="#ae9553" data-original="#000000" style="" class=""/></g><g><path d="m491 262c-18.955 0-35.996-10.532-44.472-27.484l-2.111-4.223c-2.541-5.083-7.735-8.293-13.417-8.293h-80c-5.682 0-10.876 3.21-13.417 8.292l-2.111 4.222c-8.476 16.954-25.517 27.486-44.472 27.486-8.284 0-15 6.716-15 15v85.597c0 33.654 10.619 65.715 30.708 92.716 20.089 27 47.747 46.384 79.982 56.054 1.406.422 2.858.633 4.31.633s2.904-.211 4.31-.633c32.235-9.67 59.893-29.054 79.982-56.054 20.089-27.001 30.708-59.062 30.708-92.716v-85.597c0-8.284-6.716-15-15-15zm-46.967 87.322-56.568 56.568c-2.929 2.929-6.768 4.394-10.606 4.394s-7.678-1.464-10.606-4.394l-28.284-28.284c-5.858-5.858-5.858-15.355 0-21.213 5.857-5.858 15.355-5.858 21.213 0l17.678 17.677 45.962-45.961c5.857-5.858 15.355-5.858 21.213 0 5.856 5.858 5.856 15.355-.002 21.213z" fill="#ae9553" data-original="#000000" style="" class=""/></g><g><path d="m106 120c0-33.137 26.863-60 60-60 33.137 0 60 26.863 60 60v50h60v-50c0-66.274-53.726-120-120-120-66.274 0-120 53.726-120 120v50h60z" fill="#ae9553" data-original="#000000" style="" class=""/></g></g></g></svg>
