<?xml version="1.0"?>
<svg xmlns="http://www.w3.org/2000/svg" xmlns:xlink="http://www.w3.org/1999/xlink" xmlns:svgjs="http://svgjs.com/svgjs" version="1.1" width="512" height="512" x="0" y="0" viewBox="0 0 64 64" style="enable-background:new 0 0 512 512" xml:space="preserve" class=""><g><g xmlns="http://www.w3.org/2000/svg" id="Time"><path d="M48.249,14.337A24,24,0,0,0,14.337,48.249L22.1,40.485a1,1,0,0,1,1.414,0,12,12,0,0,0,16.97-16.97,1,1,0,0,1,0-1.414Zm-7.115-.157,1-1.733a1,1,0,0,1,1.732,1l-1,1.733a1,1,0,1,1-1.732-1ZM31,10a1,1,0,0,1,2,0v2a1,1,0,0,1-2,0ZM20.5,12.081a1,1,0,0,1,1.366.366l1,1.733a1,1,0,1,1-1.732,1l-1-1.733A1,1,0,0,1,20.5,12.081ZM9,32a1,1,0,0,1,1-1h2a1,1,0,0,1,0,2H10A1,1,0,0,1,9,32Zm6.18,10.866-1.733,1a1,1,0,0,1-1-1.732l1.733-1a1,1,0,1,1,1,1.732ZM15.546,22.5a1,1,0,0,1-1.366.366l-1.733-1a1,1,0,0,1,1-1.732l1.733,1A1,1,0,0,1,15.546,22.5ZM21,33a1,1,0,0,1,0-2h7.142A4,4,0,0,1,31,28.142V17a1,1,0,0,1,2,0V28.142A3.992,3.992,0,1,1,28.142,33Zm21-1a9.994,9.994,0,0,1-17.068,7.066,1,1,0,1,1,1.416-1.412A7.995,7.995,0,1,0,37.654,26.348a1,1,0,1,1,1.412-1.416A9.914,9.914,0,0,1,42,32Z" fill="#ae9553" data-original="#000000" style="" class=""/><path d="M43.434,50.505l4.83,4.829,7.07-7.07-4.829-4.83a1,1,0,0,1-.166-1.2,20.49,20.49,0,0,0,1.861-4.5A1,1,0,0,1,53.164,37H60V27H53.164a1,1,0,0,1-.964-.732,20.473,20.473,0,0,0-1.861-4.5,1,1,0,0,1,.166-1.2l4.829-4.83-2.828-2.828-9.924,9.925A14,14,0,0,1,22.833,42.582l-9.925,9.924,2.828,2.828,4.83-4.829a1,1,0,0,1,1.2-.166,20.49,20.49,0,0,0,4.5,1.861,1,1,0,0,1,.732.964V60H37V53.164a1,1,0,0,1,.732-.964,20.49,20.49,0,0,0,4.5-1.861A1,1,0,0,1,43.434,50.505ZM56,31h2v2H56ZM49.678,48.264l1.414,1.414-1.414,1.414-1.414-1.414ZM33,58H31V56h2Z" fill="#ae9553" data-original="#000000" style="" class=""/><circle cx="32" cy="32" r="2" fill="#ae9553" data-original="#000000" style="" class=""/><path d="M11.511,51.075l1.412-1.412a26,26,0,0,1,36.74-36.74l1.412-1.412A27.994,27.994,0,0,0,11.511,51.075Z" fill="#ae9553" data-original="#000000" style="" class=""/></g></g></svg>
